<?xml version="1.0" encoding="UTF-8"?>
<svg width="178px" height="32px" viewBox="0 0 178 32" version="1.1" xmlns="http://www.w3.org/2000/svg" xmlns:xlink="http://www.w3.org/1999/xlink">
    <!-- Generator: Sketch 55.2 (78181) - https://sketchapp.com -->
    <title>Logo</title>
    <desc>Created with Sketch.</desc>
    <g id="Logo" stroke="none" stroke-width="1" fill="none" fill-rule="evenodd">
        <g fill-rule="nonzero">
            <path d="M54.05,17.24 C52.91,17.24 51.08,16.73 50.18,16.01 L51.68,12.8 C52.28,13.34 53.09,13.73 53.9,13.73 C55.49,13.73 56.93,12.53 56.93,10.88 C56.93,8.78 54.74,7.88 52.97,7.88 C48.71,7.88 45.95,11.84 45.95,15.83 C45.95,20.39 49.01,22.79 53.39,22.79 C55.34,22.79 58.43,21.65 59.48,19.94 L59.48,24.32 C57.68,25.7 55.64,26.27 53.39,26.27 C46.85,26.27 42.2,22.4 42.2,15.62 C42.2,9.44 46.64,4.37 52.97,4.37 C57.26,4.37 60.68,6.98 60.68,10.88 C60.68,14.51 57.62,17.24 54.05,17.24 Z M68.75,14.33 C72.05,14.33 74.72,17.03 74.72,20.33 C74.72,23.6 72.05,26.3 68.75,26.3 C65.45,26.3 62.78,23.6 62.78,20.33 C62.78,17.03 65.45,14.33 68.75,14.33 Z M68.75,23.39 C70.46,23.39 71.84,22.01 71.84,20.33 L71.84,20.18 C71.51,20.36 71.12,20.48 70.73,20.48 C69.44,20.48 68.36,19.43 68.36,18.14 C68.36,17.81 68.42,17.51 68.54,17.24 C66.89,17.33 65.78,18.74 65.78,20.33 C65.78,22.01 67.04,23.39 68.75,23.39 Z M97.76,25.52 C97.07,26.06 96.08,26.27 95.18,26.27 C93.2,26.27 91.91,24.47 91.91,22.61 L91.91,18.86 C91.91,17.96 91.4,17.18 90.41,17.18 C89.27,17.18 88.58,18.2 88.37,19.31 L88.37,26 L84.95,26 L84.95,18.86 C84.95,17.96 84.47,17.18 83.48,17.18 C82.34,17.18 81.65,18.14 81.44,19.28 L81.44,26 L78.02,26 L78.02,14.6 L81.44,14.6 L81.44,15.71 C82.13,14.78 83.27,14.36 84.38,14.36 C85.73,14.36 86.9,14.99 87.65,16.1 C88.31,14.84 89.72,14.36 91.07,14.36 C93.5,14.36 95.3,16.04 95.3,18.5 L95.3,22.16 C95.3,22.85 95.87,23.24 96.53,23.24 C96.98,23.24 97.43,23.06 97.76,22.76 L97.76,25.52 Z M101.57,12.26 C100.25,12.26 99.2,11.18 99.2,9.89 C99.2,8.6 100.25,7.52 101.57,7.52 C102.86,7.52 103.91,8.6 103.91,9.89 C103.91,11.18 102.86,12.26 101.57,12.26 Z M105.71,25.52 C104.99,26.06 104,26.27 103.13,26.27 C101.15,26.27 99.86,24.47 99.86,22.61 L99.86,14.6 L103.25,14.6 L103.25,22.16 C103.25,22.85 103.82,23.24 104.45,23.24 C104.93,23.24 105.38,23.06 105.71,22.76 L105.71,25.52 Z M110.03,20.21 C110.03,22.1 111.53,23.15 113.3,23.15 C114.38,23.15 115.7,22.88 116.54,22.16 L116.54,25.61 C115.61,26.06 114.32,26.27 113.3,26.27 C109.67,26.27 106.91,23.96 106.91,20.21 C106.91,17.09 109.31,14.33 112.52,14.33 C114.62,14.33 116.81,15.14 116.81,17.6 C116.81,18.95 115.88,19.94 114.53,19.94 C113.51,19.94 112.37,19.01 112.37,17.96 C112.37,17.78 112.4,17.6 112.43,17.45 C110.75,17.48 110.03,18.71 110.03,20.21 Z M131.06,17.24 C129.92,17.24 128.09,16.73 127.19,16.01 L128.69,12.8 C129.29,13.34 130.1,13.73 130.91,13.73 C132.5,13.73 133.94,12.53 133.94,10.88 C133.94,8.78 131.75,7.88 129.98,7.88 C125.72,7.88 122.96,11.84 122.96,15.83 C122.96,20.39 126.02,22.79 130.4,22.79 C132.35,22.79 135.44,21.65 136.49,19.94 L136.49,24.32 C134.69,25.7 132.65,26.27 130.4,26.27 C123.86,26.27 119.21,22.4 119.21,15.62 C119.21,9.44 123.65,4.37 129.98,4.37 C134.27,4.37 137.69,6.98 137.69,10.88 C137.69,14.51 134.63,17.24 131.06,17.24 Z M146.54,25.52 C145.85,26.06 144.86,26.27 143.96,26.27 C141.98,26.27 140.69,24.47 140.69,22.61 L140.69,4.7 L144.11,4.7 L144.11,22.16 C144.11,22.85 144.65,23.24 145.31,23.24 C145.76,23.24 146.21,23.06 146.54,22.76 L146.54,25.52 Z M161.42,23.24 C161.87,23.24 162.32,23.06 162.68,22.76 L162.68,25.52 C161.96,26.06 160.97,26.27 160.07,26.27 C158.84,26.27 157.67,25.52 157.13,24.23 C156.26,25.61 154.88,26.27 153.26,26.27 C149.9,26.27 147.74,23.54 147.74,20.3 C147.74,17.09 149.9,14.36 153.26,14.36 C154.67,14.36 155.9,14.84 156.8,15.92 L156.8,14.6 L160.22,14.6 L160.22,22.16 C160.22,22.85 160.76,23.24 161.42,23.24 Z M154.07,23.42 C155.27,23.42 156.38,22.61 156.8,21.47 L156.8,19.13 C156.38,17.99 155.3,17.18 154.07,17.18 C152.39,17.18 151.13,18.65 151.13,20.3 C151.13,21.95 152.39,23.42 154.07,23.42 Z M176.33,23.24 C176.78,23.24 177.23,23.06 177.59,22.76 L177.59,25.52 C176.87,26.06 175.88,26.27 175.01,26.27 C173,26.27 171.71,24.47 171.71,22.61 L171.71,18.86 C171.71,17.96 171.23,17.18 170.24,17.18 C169.1,17.18 168.44,18.11 168.2,19.28 L168.2,26 L164.78,26 L164.78,14.6 L168.2,14.6 L168.2,15.71 C168.89,14.78 170.03,14.36 171.14,14.36 C173.48,14.36 175.13,16.25 175.13,18.5 L175.13,22.16 C175.13,22.85 175.7,23.24 176.33,23.24 Z" id="ComicClan" fill="#F15454"></path>
            <g id="uil-book-open">
                <g id="Icon" transform="translate(2.000000, 2.000000)" fill="#F15454">
                    <path d="M28.7548537,0.27993267 C27.6796588,0.0980297078 26.5909074,0.00439733763 25.4998884,0 C21.777476,-0.00299098821 18.1326951,1.04541784 15,3.02026343 C11.859256,1.07134734 8.21504947,0.0486706559 4.50011265,0.0736712146 C3.40909369,0.078062143 2.32034229,0.171694513 1.2451474,0.353597475 C0.517541416,0.476805371 -0.0105730733,1.10176708 0,1.82689358 L0,19.5064469 C-0.00634328914,19.9447255 0.186176098,20.3630903 0.525414876,20.6478792 C0.864653653,20.932668 1.31538078,21.0543048 1.75514196,20.979743 C6.09763866,20.241253 10.5597674,21.2559233 14.1300098,23.7937385 L14.3100079,23.8968693 L14.4750061,23.8968693 C14.8110025,24.0343769 15.1889985,24.0343769 15.5249949,23.8968693 L15.6899932,23.8968693 L15.8699912,23.7937385 C19.4155581,21.1990231 23.8798939,20.1253855 28.2448591,20.8176804 C28.6846203,20.8922422 29.1353474,20.7706055 29.4745862,20.4858166 C29.813825,20.2010277 30.0063443,19.7826629 30,19.3443843 L30,1.66483101 C29.967682,0.973222423 29.4495904,0.396907777 28.7548537,0.27993267 Z M13,20 C10.3569764,18.5604896 7.41502578,17.8092013 4.42857143,17.8111073 L3,17.8111073 L3,3.02129182 C3.47579571,2.99290273 3.95277572,2.99290273 4.42857143,3.02129182 C7.47626542,3.01780479 10.457449,3.94371904 13,5.68345861 L13,20 Z M27,17.8186981 L25.5714286,17.8186981 C22.5849742,17.8167987 19.6430236,18.5654817 17,20 L17,5.67415268 C19.542551,3.94044633 22.5237346,3.01774305 25.5714286,3.02121799 C26.0472243,2.99292734 26.5242043,2.99292734 27,3.02121799 L27,17.8186981 Z M28.7367678,24.2698039 C27.6629866,24.0944827 26.5756667,24.0042382 25.4860823,24 C21.7685643,23.9971172 18.1285756,25.0075916 15,26.9109815 C11.8714244,25.0075916 8.23143573,23.9971172 4.5139177,24 C3.42433325,24.0042382 2.33701337,24.0944827 1.26323219,24.2698039 C0.869383537,24.3290496 0.516710298,24.5347061 0.283332771,24.8412186 C0.0499552447,25.1477311 -0.0448625331,25.5297987 0.0198824298,25.9027901 C0.17837879,26.6705251 0.962086847,27.1721337 1.77255619,27.0245806 C6.10934324,26.3128113 10.5656051,27.2907679 14.1311532,29.7367576 C14.6512094,30.0877475 15.3487906,30.0877475 15.8688468,29.7367576 C19.4343949,27.2907679 23.8906568,26.3128113 28.2274438,27.0245806 C29.0379132,27.1721337 29.8216212,26.6705251 29.9801176,25.9027901 C30.0448625,25.5297987 29.9500448,25.1477311 29.7166672,24.8412186 C29.4832897,24.5347061 29.1306165,24.3290496 28.7367678,24.2698039 L28.7367678,24.2698039 Z" id="Icon-Shape"></path>
                </g>
                <rect id="ViewBox" x="0" y="0" width="24" height="24"></rect>
            </g>
        </g>
    </g>
</svg>