<?xml version="1.0" encoding="UTF-8"?>
<svg width="32px" height="32px" viewBox="0 0 32 32" version="1.1" xmlns="http://www.w3.org/2000/svg" xmlns:xlink="http://www.w3.org/1999/xlink">
    <!-- Generator: Sketch 55.2 (78181) - https://sketchapp.com -->
    <title>Search Icon</title>
    <desc>Created with Sketch.</desc>
    <g id="Search-Icon" stroke="none" stroke-width="1" fill="none" fill-rule="evenodd">
        <g fill-rule="nonzero">
            <g id="Icon" transform="translate(4.000000, 4.000000)" fill="#777777">
                <path d="M17.1290323,15.0967742 L16.0587097,15.0967742 L15.6793548,14.7309677 C17.0529879,13.137707 17.8079451,11.1036505 17.8064516,9 C17.8064516,4.13633107 13.8636689,0.193548387 9,0.193548387 C4.13633107,0.193548387 0.193548387,4.13633107 0.193548387,9 C0.193548387,13.8636689 4.13633107,17.8064516 9,17.8064516 C11.1812903,17.8064516 13.1864516,17.0070968 14.7309677,15.6793548 L15.0967742,16.0587097 L15.0967742,17.1290323 L21.8709677,23.8896774 L23.8896774,21.8709677 L17.1290323,15.0967742 Z M9,15.0967742 C5.62645161,15.0967742 2.90322581,12.3735484 2.90322581,9 C2.90322581,5.62645161 5.62645161,2.90322581 9,2.90322581 C12.3735484,2.90322581 15.0967742,5.62645161 15.0967742,9 C15.0967742,12.3735484 12.3735484,15.0967742 9,15.0967742 Z" id="Icon-Shape"></path>
            </g>
            <rect id="ViewBox" x="0" y="0" width="32" height="32"></rect>
        </g>
    </g>
</svg>